<mxfile host="app.diagrams.net" modified="2023-11-13T11:46:52.308Z" agent="Mozilla/5.0 (Windows NT 10.0; Win64; x64) AppleWebKit/537.36 (KHTML, like Gecko) Chrome/116.0.5845.837 YaBrowser/23.9.4.837 Yowser/2.5 Safari/537.36" etag="HWRz8jtTtDCsQlRB4K-j" version="22.1.0" type="device">
  <diagram name="Page-1" id="13e1069c-82ec-6db2-03f1-153e76fe0fe0">
    <mxGraphModel dx="833" dy="749" grid="1" gridSize="10" guides="1" tooltips="1" connect="1" arrows="1" fold="1" page="1" pageScale="1" pageWidth="1100" pageHeight="850" background="none" math="0" shadow="0">
      <root>
        <mxCell id="0" />
        <mxCell id="1" parent="0" />
        <mxCell id="7baba1c4bc27f4b0-2" value="&lt;b&gt;Система&lt;/b&gt;" style="shape=umlLifeline;perimeter=lifelinePerimeter;whiteSpace=wrap;html=1;container=1;collapsible=0;recursiveResize=0;outlineConnect=0;rounded=1;shadow=0;comic=0;labelBackgroundColor=none;strokeWidth=1;fontFamily=Verdana;fontSize=12;align=center;" parent="1" vertex="1">
          <mxGeometry x="310" y="80" width="100" height="690" as="geometry" />
        </mxCell>
        <mxCell id="7baba1c4bc27f4b0-10" value="" style="html=1;points=[];perimeter=orthogonalPerimeter;rounded=0;shadow=0;comic=0;labelBackgroundColor=none;strokeWidth=1;fontFamily=Verdana;fontSize=12;align=center;" parent="7baba1c4bc27f4b0-2" vertex="1">
          <mxGeometry x="45" y="75" width="10" height="230" as="geometry" />
        </mxCell>
        <mxCell id="1GNPk6UR7GGyTUbhpQHU-11" value="" style="curved=1;endArrow=classic;html=1;rounded=0;entryX=0.82;entryY=0.438;entryDx=0;entryDy=0;entryPerimeter=0;" edge="1" parent="7baba1c4bc27f4b0-2" source="7baba1c4bc27f4b0-10" target="7baba1c4bc27f4b0-10">
          <mxGeometry width="50" height="50" relative="1" as="geometry">
            <mxPoint x="60.59999999999998" y="190.00000000000009" as="sourcePoint" />
            <mxPoint x="54.99999999999996" y="213.23" as="targetPoint" />
            <Array as="points">
              <mxPoint x="80" y="160" />
              <mxPoint x="140" y="170" />
            </Array>
          </mxGeometry>
        </mxCell>
        <mxCell id="1GNPk6UR7GGyTUbhpQHU-17" value="" style="html=1;points=[];perimeter=orthogonalPerimeter;rounded=0;shadow=0;comic=0;labelBackgroundColor=none;strokeWidth=1;fontFamily=Verdana;fontSize=12;align=center;" vertex="1" parent="7baba1c4bc27f4b0-2">
          <mxGeometry x="45" y="330" width="10" height="350" as="geometry" />
        </mxCell>
        <mxCell id="1GNPk6UR7GGyTUbhpQHU-20" style="edgeStyle=orthogonalEdgeStyle;rounded=0;orthogonalLoop=1;jettySize=auto;html=1;" edge="1" parent="7baba1c4bc27f4b0-2">
          <mxGeometry relative="1" as="geometry">
            <mxPoint x="55" y="380" as="sourcePoint" />
            <mxPoint x="55" y="400" as="targetPoint" />
            <Array as="points">
              <mxPoint x="100" y="390" />
            </Array>
          </mxGeometry>
        </mxCell>
        <mxCell id="7baba1c4bc27f4b0-3" value="&lt;b&gt;Платежная система&lt;/b&gt;" style="shape=umlLifeline;perimeter=lifelinePerimeter;whiteSpace=wrap;html=1;container=1;collapsible=0;recursiveResize=0;outlineConnect=0;rounded=1;shadow=0;comic=0;labelBackgroundColor=none;strokeWidth=1;fontFamily=Verdana;fontSize=12;align=center;" parent="1" vertex="1">
          <mxGeometry x="510" y="80" width="100" height="690" as="geometry" />
        </mxCell>
        <mxCell id="7baba1c4bc27f4b0-13" value="" style="html=1;points=[];perimeter=orthogonalPerimeter;rounded=0;shadow=0;comic=0;labelBackgroundColor=none;strokeWidth=1;fontFamily=Verdana;fontSize=12;align=center;" parent="7baba1c4bc27f4b0-3" vertex="1">
          <mxGeometry x="45" y="360" width="10" height="320" as="geometry" />
        </mxCell>
        <mxCell id="1GNPk6UR7GGyTUbhpQHU-32" style="edgeStyle=orthogonalEdgeStyle;rounded=0;orthogonalLoop=1;jettySize=auto;html=1;" edge="1" parent="7baba1c4bc27f4b0-3" source="7baba1c4bc27f4b0-13" target="7baba1c4bc27f4b0-13">
          <mxGeometry relative="1" as="geometry">
            <Array as="points">
              <mxPoint x="100" y="520" />
            </Array>
          </mxGeometry>
        </mxCell>
        <mxCell id="7baba1c4bc27f4b0-8" value="&lt;b&gt;Пользователь&lt;/b&gt;" style="shape=umlLifeline;perimeter=lifelinePerimeter;whiteSpace=wrap;html=1;container=1;collapsible=0;recursiveResize=0;outlineConnect=0;rounded=1;shadow=0;comic=0;labelBackgroundColor=none;strokeWidth=1;fontFamily=Verdana;fontSize=12;align=center;" parent="1" vertex="1">
          <mxGeometry x="100" y="80" width="100" height="690" as="geometry" />
        </mxCell>
        <mxCell id="7baba1c4bc27f4b0-9" value="" style="html=1;points=[];perimeter=orthogonalPerimeter;rounded=0;shadow=0;comic=0;labelBackgroundColor=none;strokeWidth=1;fontFamily=Verdana;fontSize=12;align=center;" parent="7baba1c4bc27f4b0-8" vertex="1">
          <mxGeometry x="45" y="70" width="10" height="610" as="geometry" />
        </mxCell>
        <mxCell id="1GNPk6UR7GGyTUbhpQHU-4" value="" style="html=1;verticalAlign=bottom;endArrow=block;entryX=0;entryY=0;labelBackgroundColor=none;fontFamily=Verdana;fontSize=12;edgeStyle=elbowEdgeStyle;elbow=vertical;" edge="1" parent="1" source="7baba1c4bc27f4b0-9" target="1GNPk6UR7GGyTUbhpQHU-3">
          <mxGeometry relative="1" as="geometry">
            <mxPoint x="150" y="180" as="sourcePoint" />
            <mxPoint x="290" y="180" as="targetPoint" />
          </mxGeometry>
        </mxCell>
        <mxCell id="1GNPk6UR7GGyTUbhpQHU-3" value="alt" style="shape=umlFrame;whiteSpace=wrap;html=1;pointerEvents=0;" vertex="1" parent="1">
          <mxGeometry x="115" y="180" width="395" height="180" as="geometry" />
        </mxCell>
        <mxCell id="1GNPk6UR7GGyTUbhpQHU-5" value="Товар есть" style="text;html=1;align=center;verticalAlign=middle;resizable=0;points=[];autosize=1;strokeColor=none;fillColor=none;fontStyle=1" vertex="1" parent="1">
          <mxGeometry x="175" y="180" width="90" height="30" as="geometry" />
        </mxCell>
        <mxCell id="1GNPk6UR7GGyTUbhpQHU-2" value="&lt;span style=&quot;font-size: 10px;&quot;&gt;Проверить наличие товара&lt;/span&gt;" style="text;html=1;align=left;verticalAlign=middle;resizable=0;points=[];autosize=1;strokeColor=none;fillColor=none;fontStyle=1" vertex="1" parent="1">
          <mxGeometry x="370" y="210" width="160" height="30" as="geometry" />
        </mxCell>
        <mxCell id="1GNPk6UR7GGyTUbhpQHU-7" value="Подтверждение заказа" style="text;html=1;align=left;verticalAlign=middle;resizable=0;points=[];autosize=1;strokeColor=none;fillColor=none;fontSize=10;fontStyle=1" vertex="1" parent="1">
          <mxGeometry x="160" y="230" width="140" height="30" as="geometry" />
        </mxCell>
        <mxCell id="1GNPk6UR7GGyTUbhpQHU-13" value="Товара нет" style="text;html=1;align=center;verticalAlign=middle;resizable=0;points=[];autosize=1;strokeColor=none;fillColor=none;fontStyle=1;fontSize=11;" vertex="1" parent="1">
          <mxGeometry x="160" y="255" width="80" height="30" as="geometry" />
        </mxCell>
        <mxCell id="1GNPk6UR7GGyTUbhpQHU-15" value="Выводим: &quot;Нет в наличии&quot;" style="text;html=1;align=center;verticalAlign=middle;resizable=0;points=[];autosize=1;strokeColor=none;fillColor=none;fontStyle=1;fontSize=10;" vertex="1" parent="1">
          <mxGeometry x="150" y="285" width="160" height="30" as="geometry" />
        </mxCell>
        <mxCell id="1GNPk6UR7GGyTUbhpQHU-18" style="edgeStyle=orthogonalEdgeStyle;rounded=0;orthogonalLoop=1;jettySize=auto;html=1;" edge="1" parent="1" source="7baba1c4bc27f4b0-9" target="7baba1c4bc27f4b0-2">
          <mxGeometry relative="1" as="geometry">
            <Array as="points">
              <mxPoint x="260" y="440" />
              <mxPoint x="260" y="440" />
            </Array>
          </mxGeometry>
        </mxCell>
        <mxCell id="1GNPk6UR7GGyTUbhpQHU-19" value="Переходим к оформлению заказа" style="text;html=1;align=center;verticalAlign=middle;resizable=0;points=[];autosize=1;strokeColor=none;fillColor=none;fontSize=10;fontStyle=1" vertex="1" parent="1">
          <mxGeometry x="160" y="410" width="190" height="30" as="geometry" />
        </mxCell>
        <mxCell id="1GNPk6UR7GGyTUbhpQHU-21" value="Считаем сумму заказа" style="text;html=1;align=center;verticalAlign=middle;resizable=0;points=[];autosize=1;strokeColor=none;fillColor=none;fontSize=10;fontStyle=1" vertex="1" parent="1">
          <mxGeometry x="370" y="440" width="130" height="30" as="geometry" />
        </mxCell>
        <mxCell id="1GNPk6UR7GGyTUbhpQHU-23" style="edgeStyle=orthogonalEdgeStyle;rounded=0;orthogonalLoop=1;jettySize=auto;html=1;entryX=0.1;entryY=0.423;entryDx=0;entryDy=0;entryPerimeter=0;" edge="1" parent="1" source="1GNPk6UR7GGyTUbhpQHU-17" target="7baba1c4bc27f4b0-13">
          <mxGeometry relative="1" as="geometry">
            <Array as="points">
              <mxPoint x="556" y="525" />
            </Array>
          </mxGeometry>
        </mxCell>
        <mxCell id="1GNPk6UR7GGyTUbhpQHU-24" value="Направляем на страницу оплаты" style="text;html=1;align=center;verticalAlign=middle;resizable=0;points=[];autosize=1;strokeColor=none;fillColor=none;fontSize=10;fontStyle=1" vertex="1" parent="1">
          <mxGeometry x="360" y="498" width="190" height="30" as="geometry" />
        </mxCell>
        <mxCell id="1GNPk6UR7GGyTUbhpQHU-25" value="loop" style="shape=umlFrame;whiteSpace=wrap;html=1;pointerEvents=0;" vertex="1" parent="1">
          <mxGeometry x="105" y="570" width="575" height="170" as="geometry" />
        </mxCell>
        <mxCell id="1GNPk6UR7GGyTUbhpQHU-26" value="opt" style="shape=umlFrame;whiteSpace=wrap;html=1;pointerEvents=0;" vertex="1" parent="1">
          <mxGeometry x="130" y="620" width="530" height="100" as="geometry" />
        </mxCell>
        <mxCell id="1GNPk6UR7GGyTUbhpQHU-27" style="edgeStyle=orthogonalEdgeStyle;rounded=0;orthogonalLoop=1;jettySize=auto;html=1;entryX=0.86;entryY=0.183;entryDx=0;entryDy=0;entryPerimeter=0;dashed=1;dashPattern=1 1;" edge="1" parent="1" source="7baba1c4bc27f4b0-10" target="7baba1c4bc27f4b0-9">
          <mxGeometry relative="1" as="geometry" />
        </mxCell>
        <mxCell id="1GNPk6UR7GGyTUbhpQHU-28" style="edgeStyle=orthogonalEdgeStyle;rounded=0;orthogonalLoop=1;jettySize=auto;html=1;entryX=0.5;entryY=0.23;entryDx=0;entryDy=0;entryPerimeter=0;dashed=1;dashPattern=1 1;" edge="1" parent="1" source="7baba1c4bc27f4b0-10" target="7baba1c4bc27f4b0-9">
          <mxGeometry relative="1" as="geometry" />
        </mxCell>
        <mxCell id="1GNPk6UR7GGyTUbhpQHU-29" value="Оплата не завершена" style="text;html=1;align=center;verticalAlign=middle;resizable=0;points=[];autosize=1;strokeColor=none;fillColor=none;fontStyle=1" vertex="1" parent="1">
          <mxGeometry x="160" y="570" width="150" height="30" as="geometry" />
        </mxCell>
        <mxCell id="1GNPk6UR7GGyTUbhpQHU-30" value="Оплата прошла успешно" style="text;html=1;align=center;verticalAlign=middle;resizable=0;points=[];autosize=1;strokeColor=none;fillColor=none;fontStyle=1" vertex="1" parent="1">
          <mxGeometry x="190" y="620" width="170" height="30" as="geometry" />
        </mxCell>
        <mxCell id="1GNPk6UR7GGyTUbhpQHU-33" value="Проверка оплаты" style="text;html=1;align=center;verticalAlign=middle;resizable=0;points=[];autosize=1;strokeColor=none;fillColor=none;fontStyle=1;fontSize=10;" vertex="1" parent="1">
          <mxGeometry x="560" y="568" width="110" height="30" as="geometry" />
        </mxCell>
        <mxCell id="1GNPk6UR7GGyTUbhpQHU-34" style="edgeStyle=orthogonalEdgeStyle;rounded=0;orthogonalLoop=1;jettySize=auto;html=1;entryX=0.9;entryY=0.743;entryDx=0;entryDy=0;entryPerimeter=0;dashed=1;dashPattern=1 1;" edge="1" parent="1" source="7baba1c4bc27f4b0-13" target="1GNPk6UR7GGyTUbhpQHU-17">
          <mxGeometry relative="1" as="geometry">
            <Array as="points">
              <mxPoint x="460" y="670" />
              <mxPoint x="460" y="670" />
            </Array>
          </mxGeometry>
        </mxCell>
        <mxCell id="1GNPk6UR7GGyTUbhpQHU-35" value="Отправить подтверждение оплаты" style="text;html=1;align=center;verticalAlign=middle;resizable=0;points=[];autosize=1;strokeColor=none;fillColor=none;fontSize=10;fontStyle=1" vertex="1" parent="1">
          <mxGeometry x="360" y="650" width="200" height="30" as="geometry" />
        </mxCell>
        <mxCell id="1GNPk6UR7GGyTUbhpQHU-36" style="edgeStyle=orthogonalEdgeStyle;rounded=0;orthogonalLoop=1;jettySize=auto;html=1;entryX=1.02;entryY=0.888;entryDx=0;entryDy=0;entryPerimeter=0;dashed=1;dashPattern=1 1;" edge="1" parent="1" source="1GNPk6UR7GGyTUbhpQHU-17" target="7baba1c4bc27f4b0-9">
          <mxGeometry relative="1" as="geometry">
            <Array as="points">
              <mxPoint x="310" y="692" />
              <mxPoint x="310" y="692" />
            </Array>
          </mxGeometry>
        </mxCell>
        <mxCell id="1GNPk6UR7GGyTUbhpQHU-37" value="Показать подтверждение оплаты" style="text;html=1;align=center;verticalAlign=middle;resizable=0;points=[];autosize=1;strokeColor=none;fillColor=none;fontSize=10;fontStyle=1" vertex="1" parent="1">
          <mxGeometry x="160" y="670" width="190" height="30" as="geometry" />
        </mxCell>
      </root>
    </mxGraphModel>
  </diagram>
</mxfile>
